<svg width="800" height="200" viewBox="0 0 800 200" fill="none" xmlns="http://www.w3.org/2000/svg">
<path d="M478.576 37C478.576 33.6863 475.89 31 472.576 31H454.647C451.333 31 448.647 33.6863 448.647 37V162.946C448.647 166.26 451.333 168.946 454.647 168.946H472.576C475.89 168.946 478.576 166.26 478.576 162.946V37Z" fill="white"/>
<path d="M299 112.466V37C299 33.6863 301.686 31 305 31H322.534C325.848 31 328.534 33.6863 328.534 37V102.492C328.534 108.423 331.577 113.985 336.696 117.414L358.995 132.347C363.525 135.38 369.601 135.333 374.078 132.23L395.432 117.427C400.402 113.983 403.338 108.506 403.338 102.681V37C403.338 33.6863 406.024 31 409.338 31H427.259C430.572 31 433.259 33.6863 433.259 37V112.48C433.259 120.06 429.529 127.209 423.167 131.824L377.959 164.613C371.018 169.647 361.366 169.651 354.42 164.623L309.111 131.824C302.738 127.21 299 120.054 299 112.466Z" fill="white"/>
<path d="M774 87.5338V163C774 166.314 771.314 169 768 169H750.466C747.152 169 744.466 166.314 744.466 163V97.5076C744.466 91.5771 741.423 86.0148 736.304 82.5864L714.005 67.6534C709.475 64.6198 703.399 64.6667 698.922 67.7701L677.568 82.5726C672.598 86.0173 669.663 91.4938 669.663 97.3188V163C669.663 166.314 666.976 169 663.663 169H645.741C642.428 169 639.741 166.314 639.741 163V87.5197C639.741 79.9396 643.471 72.7906 649.833 68.1761L695.041 35.3874C701.982 30.353 711.634 30.3488 718.58 35.3771L763.889 68.1765C770.262 72.7902 774 79.9457 774 87.5338Z" fill="white"/>
<path fill-rule="evenodd" clip-rule="evenodd" d="M499.617 168.879C496.303 168.879 493.617 166.193 493.617 162.879V37.1219C493.617 33.8082 496.303 31.1219 499.617 31.1219H592.796C610.603 31.1219 625.039 44.767 625.039 61.5992V138.402C625.039 155.234 610.603 168.879 592.796 168.879H499.617ZM523.151 140.596V59.2829H582.349C589.472 59.2829 595.246 64.741 595.246 71.4738V128.405C595.246 135.138 589.472 140.596 582.349 140.596H523.151Z" fill="white"/>
<path fill-rule="evenodd" clip-rule="evenodd" d="M82.1911 8C87.8114 8 92.3676 12.3178 92.3676 17.644V181.593C92.3676 186.919 87.8114 191.237 82.1911 191.237H71.4927C65.8724 191.237 61.3163 186.919 61.3163 181.593V17.644C61.3163 12.3178 65.8724 8 71.4927 8H82.1911ZM129.507 8C135.128 8 139.684 12.3178 139.684 17.644V181.593C139.684 186.919 135.128 191.237 129.507 191.237H118.809C113.189 191.237 108.632 186.919 108.632 181.593V17.644C108.632 12.3178 113.189 8 118.809 8H129.507ZM34.8748 43.634C40.4951 43.634 45.0513 47.9517 45.0513 53.278L45.0513 143.233C45.0513 148.559 40.4952 152.877 34.8749 152.877L24.1765 152.877C18.5562 152.877 14 148.559 14 143.233L14 53.278C14 47.9518 18.5562 43.634 24.1765 43.634L34.8748 43.634ZM176.824 43.634C182.444 43.634 187 47.9517 187 53.278L187 143.233C187 148.559 182.444 152.877 176.824 152.877L166.125 152.877C160.505 152.877 155.949 148.559 155.949 143.233L155.949 53.278C155.949 47.9518 160.505 43.634 166.125 43.634L176.824 43.634Z" fill="white"/>
</svg>
